<svg id="Capa_1" enable-background="new 0 0 512 512" height="512" viewBox="0 0 512 512" width="512" xmlns="http://www.w3.org/2000/svg"><g><path d="m15 211h32.013c.116-10.527 2.045-20.628 5.5-30h-37.513c-8.284 0-15 6.716-15 15s6.716 15 15 15z"/><path d="m497 181h-270v30h270c8.284 0 15-6.716 15-15s-6.716-15-15-15z"/><path d="m315 91h182c8.284 0 15-6.716 15-15s-6.716-15-15-15h-182.513c.817 8.166.396 12.341.513 30z"/><path d="m15 91h122v-30h-122c-8.284 0-15 6.716-15 15s6.716 15 15 15z"/><path d="m77 212c0 33.084 26.916 60 60 60 31.591 0 60-25.074 60-61v-117.752h3.558c25.199 0 42.697 7.184 58.508 24.021 9.274 9.876 25.934 3.306 25.934-10.269v-35.752c0-37.723-29.077-68.935-66.192-71.056-2.583-.147-36.699-.192-36.808-.192-8.267 0-15 6.704-15 15v145.072c-39.631-22.985-90 5.632-90 51.928z"/><path d="m0 436c0 8.284 6.716 15 15 15h113.32c.116-10.527 2.045-20.628 5.5-30h-118.82c-8.284 0-15 6.716-15 15z"/><path d="m497 421h-31c0 10.515-1.819 20.612-5.148 30h36.148c8.284 0 15-6.716 15-15s-6.716-15-15-15z"/><path d="m15 331h203.308v-30h-203.308c-8.284 0-15 6.716-15 15s6.716 15 15 15z"/><path d="m497 301h-31v30h31c8.284 0 15-6.716 15-15s-6.716-15-15-15z"/><path d="m418.086 241.67-157.692 31.231c-7.024 1.391-12.086 7.553-12.086 14.714v112.457c-39.631-22.985-90 5.632-90 51.928 0 33.084 26.916 60 60 60s60-26.916 60-60v-93.064l127.692-25.29v35.426c-39.631-22.985-90 5.632-90 51.928 0 33.084 26.916 60 60 60s60-26.916 60-60c0-14.774 0-145.185 0-164.615 0-9.42-8.61-16.553-17.914-14.715z"/></g></svg>