<?xml version="1.0" encoding="iso-8859-1"?>
<!-- Generator: Adobe Illustrator 19.0.0, SVG Export Plug-In . SVG Version: 6.00 Build 0)  -->
<svg version="1.1" id="Capa_1" xmlns="http://www.w3.org/2000/svg" xmlns:xlink="http://www.w3.org/1999/xlink" x="0px" y="0px"
	 viewBox="0 0 273.07 273.07" style="enable-background:new 0 0 273.07 273.07;" xml:space="preserve">
<g>
	<g>
		<path d="M221.87,0h-34.135C168.97,0,153.6,15.37,153.6,34.135v61.317L68.086,9.999C61.901,3.82,53.371,0,43.95,0
			C29.087,0,17.07,12.001,17.07,26.87v219.351c0,14.827,12.032,26.849,26.88,26.849h0.22c9.416,0,17.951-3.799,24.131-9.999
			l85.299-85.233v61.097c0,18.765,15.37,34.135,34.135,34.135h34.135c18.765,0,34.13-15.37,34.13-34.135v-204.8
			C256,15.37,240.635,0,221.87,0z"/>
	</g>
</g>
<g>
</g>
<g>
</g>
<g>
</g>
<g>
</g>
<g>
</g>
<g>
</g>
<g>
</g>
<g>
</g>
<g>
</g>
<g>
</g>
<g>
</g>
<g>
</g>
<g>
</g>
<g>
</g>
<g>
</g>
</svg>
